<?xml version="1.0" standalone="no"?>
<!DOCTYPE svg PUBLIC "-//W3C//DTD SVG 20010904//EN"
 "http://www.w3.org/TR/2001/REC-SVG-20010904/DTD/svg10.dtd">
<svg version="1.0" xmlns="http://www.w3.org/2000/svg"
 width="260.000000pt" height="260.000000pt" viewBox="0 0 260.000000 260.000000"
 preserveAspectRatio="xMidYMid meet">
<metadata>
Created by potrace 1.14, written by Peter Selinger 2001-2017
</metadata>
<g transform="translate(0.000000,260.000000) scale(0.100000,-0.100000)"
fill="#000000" stroke="none">
<path d="M1514 2377 c-16 -19 -24 -47 -13 -47 6 0 7 -4 4 -10 -3 -5 0 -10 8
-10 16 0 137 -112 137 -126 0 -5 9 -16 20 -24 11 -8 20 -19 20 -25 0 -6 9 -21
21 -33 11 -13 22 -32 24 -43 2 -12 10 -28 16 -35 17 -21 59 -113 59 -131 0
-24 23 -39 61 -38 35 0 47 17 23 33 -5 4 -10 15 -12 24 -1 9 -12 37 -23 62
-11 25 -18 48 -17 50 2 2 -4 12 -12 22 -15 19 -32 48 -56 92 -6 13 -23 36 -38
52 -14 17 -26 32 -26 35 0 9 -129 133 -133 129 -2 -2 -12 5 -22 16 -21 23 -26
24 -41 7z"/>
<path d="M1025 2258 c-29 -17 -41 -31 -49 -56 -4 -12 -12 -22 -17 -22 -6 0 -6
-8 1 -20 7 -14 7 -20 0 -20 -7 0 -7 -6 -1 -17 16 -29 24 -57 22 -71 -1 -7 5
-15 14 -18 8 -3 15 -12 15 -20 0 -7 10 -24 23 -37 35 -37 67 -77 61 -77 -3 0
9 -15 25 -32 17 -18 31 -36 31 -40 0 -5 8 -16 18 -26 9 -10 24 -29 32 -42 8
-13 23 -32 33 -42 9 -10 17 -20 17 -23 0 -3 12 -19 28 -36 15 -17 26 -33 24
-35 -1 -3 9 -15 23 -28 14 -13 25 -28 25 -35 0 -6 9 -16 20 -23 11 -7 20 -18
20 -25 0 -7 5 -13 10 -13 6 0 10 -7 10 -15 0 -8 6 -15 13 -15 7 0 5 -5 -5 -10
-13 -8 -25 -2 -55 31 -21 22 -48 51 -60 64 -12 12 -19 26 -16 29 4 3 -2 6 -12
6 -10 0 -16 3 -12 6 3 4 -12 24 -33 45 -22 22 -37 39 -34 39 3 0 -11 16 -30
35 -20 19 -33 35 -30 35 4 0 -6 13 -22 29 -44 44 -74 82 -74 92 0 6 -4 7 -10
4 -5 -3 -10 -2 -10 3 0 5 -8 18 -17 29 -10 11 -34 39 -53 63 -19 23 -44 51
-54 61 -11 10 -16 19 -12 19 17 0 -72 73 -115 94 -45 22 -65 24 -97 10 -9 -4
-21 -8 -25 -8 -5 -1 -15 -10 -23 -20 -8 -11 -14 -16 -14 -10 -1 5 -9 -7 -19
-26 -11 -23 -14 -39 -8 -47 6 -9 6 -13 -2 -13 -7 0 -8 -6 -2 -17 18 -36 34
-78 33 -85 -1 -5 2 -8 8 -8 5 0 10 -5 10 -11 0 -7 13 -26 30 -43 75 -79 150
-163 151 -170 0 -3 25 -30 55 -60 30 -31 52 -56 49 -56 -3 0 9 -13 25 -29 17
-15 30 -34 30 -40 0 -7 5 -9 10 -6 6 3 10 2 10 -4 0 -6 14 -24 30 -41 17 -17
30 -35 30 -41 0 -6 4 -8 9 -5 9 6 26 -22 23 -36 -1 -5 5 -8 13 -8 8 0 15 -3
15 -7 0 -5 18 -27 40 -51 22 -24 40 -47 40 -53 0 -6 5 -7 10 -4 6 3 10 0 10
-8 0 -8 7 -20 15 -27 15 -12 12 -30 -4 -30 -5 0 -43 34 -85 75 -42 41 -74 75
-71 75 3 0 -25 30 -61 68 -93 95 -99 103 -96 113 1 5 -3 9 -9 9 -12 0 -129
119 -129 132 0 4 -3 8 -7 8 -5 0 -25 16 -46 35 -21 19 -48 40 -60 47 -30 16
-96 27 -103 17 -2 -4 -11 -6 -19 -2 -8 3 -15 -1 -15 -8 0 -7 -3 -9 -7 -6 -6 7
-30 -20 -31 -36 -1 -4 -8 -14 -16 -22 -9 -9 -13 -28 -10 -52 4 -45 33 -113 47
-113 6 0 8 -2 5 -5 -3 -3 41 -53 98 -111 57 -57 104 -109 104 -114 0 -6 7 -10
16 -10 8 0 12 -4 9 -10 -3 -5 1 -10 9 -10 9 0 16 -4 16 -9 0 -4 34 -42 75 -84
41 -42 75 -81 75 -87 0 -5 3 -9 8 -7 9 3 58 -46 55 -55 -2 -4 6 -10 17 -13 10
-3 22 -15 25 -26 4 -11 9 -18 12 -15 6 6 63 -54 63 -67 0 -4 5 -5 10 -2 6 3
10 1 10 -4 0 -6 -9 -11 -20 -11 -11 0 -20 5 -20 12 0 6 -3 9 -6 6 -3 -3 -25
13 -49 36 -24 22 -55 50 -68 61 -14 11 -23 23 -21 27 2 3 -12 15 -31 27 -20
11 -38 27 -41 36 -3 8 -10 12 -15 9 -5 -3 -9 3 -9 12 0 10 -3 15 -6 11 -4 -3
-20 9 -37 28 -17 19 -35 35 -39 35 -5 0 -18 9 -30 20 -12 11 -30 20 -40 20
-10 0 -18 5 -18 12 0 9 -3 9 -12 0 -8 -8 -15 -9 -25 -1 -10 9 -17 8 -30 -2
-11 -9 -14 -10 -9 -2 4 7 -6 5 -23 -5 -16 -9 -28 -18 -26 -20 2 -2 -5 -12 -16
-23 -10 -10 -19 -33 -19 -50 0 -34 27 -99 41 -99 5 0 8 -3 7 -7 -3 -16 15 -43
27 -43 8 0 17 -9 20 -21 4 -11 9 -18 12 -16 2 3 30 -20 62 -51 88 -87 150
-140 156 -134 3 3 5 -2 5 -11 0 -9 4 -17 10 -17 5 0 25 -16 44 -35 20 -19 40
-35 46 -35 6 0 8 -4 5 -10 -3 -5 -2 -10 2 -10 5 0 30 -19 55 -42 26 -24 68
-61 94 -83 26 -22 60 -52 76 -68 16 -15 31 -27 35 -27 3 0 15 -10 27 -23 44
-45 111 -97 125 -97 8 0 11 -3 8 -7 -7 -7 1 -12 83 -56 29 -15 55 -25 58 -23
2 3 14 0 26 -6 11 -7 31 -11 44 -9 12 1 22 -3 22 -10 0 -8 4 -8 13 -1 20 17
23 18 41 3 15 -13 19 -13 27 0 7 11 9 11 9 0 0 -11 3 -11 17 0 14 12 15 12 9
1 -7 -12 -4 -12 14 -2 12 6 24 9 27 7 2 -3 19 1 38 8 18 8 35 11 39 8 3 -4 6
-2 6 4 0 6 12 14 28 18 15 3 44 17 64 31 21 13 42 24 48 24 5 0 10 5 10 10 0
6 6 10 14 10 8 0 17 7 20 16 4 9 9 14 12 11 3 -3 20 9 38 26 19 18 44 41 57
53 32 28 99 104 92 104 -4 0 3 10 14 22 27 30 78 131 74 146 -1 1 5 17 13 35
13 33 20 267 7 267 -3 0 -6 21 -5 48 0 26 -4 53 -10 61 -9 12 -8 13 4 6 13 -8
13 -7 1 8 -11 14 -11 17 0 17 12 0 12 2 1 9 -8 4 -12 17 -11 27 2 11 0 29 -4
40 -4 12 -8 38 -9 58 -1 20 -5 36 -9 36 -4 0 -6 8 -4 18 1 9 -2 23 -8 30 -6 8
-5 12 4 12 9 0 10 3 2 11 -6 6 -7 25 -3 48 4 21 6 45 4 54 -1 9 3 17 9 17 5 0
8 3 5 6 -4 3 -2 20 4 37 5 18 10 40 10 49 -1 9 6 22 14 29 8 6 14 17 14 24 0
7 13 39 30 70 49 93 36 195 -25 195 -12 0 -25 4 -30 9 -13 13 -55 16 -82 7
-12 -4 -32 -9 -45 -11 -12 -3 -24 -9 -26 -15 -2 -6 -8 -8 -12 -5 -13 8 -119
-101 -126 -130 -3 -14 -9 -25 -13 -25 -4 0 -8 -6 -8 -12 -5 -157 -34 -253 -78
-264 -14 -3 -25 -10 -25 -15 0 -5 -10 -5 -22 0 -25 9 -27 10 -58 18 -11 3 -20
9 -20 13 0 5 -9 11 -19 15 -10 3 -21 15 -24 25 -3 11 -13 20 -22 20 -9 0 -13
5 -10 10 3 6 -1 13 -9 16 -9 3 -16 12 -16 19 0 8 -9 16 -20 20 -11 3 -19 10
-17 14 1 4 -14 27 -33 51 -19 24 -34 47 -32 52 1 5 -2 7 -7 4 -5 -4 -14 6 -19
21 -6 16 -11 21 -11 13 -1 -8 -9 0 -18 17 -10 18 -28 43 -40 57 -12 13 -27 35
-34 47 -13 26 -25 41 -53 69 -11 11 -16 20 -10 20 5 0 1 5 -9 11 -9 6 -15 14
-12 19 3 4 -2 10 -10 14 -8 3 -15 12 -15 21 0 8 -3 15 -7 15 -5 0 -30 32 -58
70 -27 38 -56 70 -62 70 -7 0 -13 6 -13 14 0 8 -9 18 -20 21 -11 3 -20 11 -20
16 0 5 -7 9 -15 9 -8 0 -15 4 -15 8 0 13 -93 13 -115 0z"/>
<path d="M1412 2241 c-17 -10 -24 -51 -9 -51 7 0 19 -9 27 -20 8 -11 19 -20
25 -20 12 -1 118 -135 115 -146 -1 -4 2 -10 7 -13 11 -8 48 -85 64 -133 7 -21
15 -36 17 -33 2 2 15 0 27 -5 30 -12 36 4 19 52 -7 20 -10 39 -7 42 4 3 1 6
-6 6 -7 0 -9 5 -6 10 3 6 3 10 -2 10 -4 0 -19 25 -33 55 -14 30 -28 55 -32 55
-5 0 -8 7 -8 15 0 8 -4 15 -10 15 -5 0 -10 6 -10 14 0 8 -7 16 -15 20 -8 3
-15 12 -15 21 0 8 -4 14 -8 13 -4 -2 -22 12 -40 30 -18 18 -32 29 -32 25 0 -4
-5 0 -11 10 -5 9 -16 17 -24 17 -7 0 -15 4 -17 10 -1 5 -9 6 -16 1z"/>
<path d="M372 1001 c-11 -6 -10 -16 5 -47 10 -21 24 -45 31 -52 6 -7 12 -17
12 -21 0 -4 8 -17 18 -29 46 -54 52 -63 52 -72 0 -6 5 -10 10 -10 6 0 26 -17
45 -37 19 -20 35 -33 35 -29 0 5 8 -1 19 -12 10 -12 23 -22 30 -22 6 0 11 -5
11 -10 0 -6 3 -9 8 -8 4 1 21 -5 38 -15 28 -14 34 -14 44 -2 21 25 0 61 -32
56 -5 0 -8 3 -8 9 0 5 -7 10 -15 10 -8 0 -15 4 -15 8 0 5 -12 14 -26 20 -15 7
-22 17 -18 24 4 6 3 8 -3 5 -16 -10 -143 136 -157 181 -4 12 -12 22 -18 22 -6
0 -9 3 -5 6 3 4 -1 13 -9 22 -13 12 -17 13 -24 2 -5 -8 -9 -9 -11 -1 -2 6 -10
7 -17 2z"/>
<path d="M238 942 c-14 -3 -18 -13 -18 -44 0 -37 31 -97 90 -172 26 -34 155
-160 179 -176 13 -8 33 -23 46 -32 12 -9 28 -18 36 -20 7 -2 20 -9 28 -16 7
-7 23 -12 35 -10 16 2 21 10 21 32 0 24 -7 33 -40 50 -22 11 -46 26 -53 33 -7
7 -17 13 -21 13 -5 0 -43 35 -85 78 -96 96 -106 107 -106 116 0 8 -42 68 -53
77 -5 3 -8 8 -6 10 1 2 -7 18 -17 34 -12 19 -25 29 -36 27z"/>
</g>
</svg>
